<svg width="196" height="45" viewBox="0 0 196 45" fill="none" xmlns="http://www.w3.org/2000/svg">
<path d="M10 32.2462H11.3294C11.9981 32.2462 13.3275 32.1046 13.3275 30.5077V16.1201C13.3275 15.2547 13.2646 13.1859 11.5969 13.1859H10.0629L11.8014 10.1259H114.285V13.1859H19.9982C19.1329 13.1859 18.0001 13.3826 18.0001 15.121V19.6521C18.1968 20.1791 18.9992 20.3836 19.4003 20.3836C19.8015 20.3836 21.2018 20.3128 21.2018 18.1181H23.192V25.5125H21.1939C21.1939 24.8439 20.4544 23.7269 19.4633 23.6482C18.6609 23.5853 18.0001 23.8527 18.0001 24.9226V30.5156C18.0001 31.1134 18.7317 32.254 20.4623 32.254H21.658V34.6533H10V32.2462Z" fill="white"/>
<path d="M69.1475 16.655C69.1475 17.1899 69.8082 17.7248 70.2094 17.8507C70.6814 17.5203 73.1436 16.1201 75.0709 16.1201C76.9981 16.1201 78.005 17.1191 78.005 18.653V25.9845H73.3403V20.3128C73.3403 19.5813 73.1436 19.0542 72.475 18.9834C71.8063 18.9126 70.0757 20.3207 69.6116 20.9894V31.1134C69.6116 32.0495 70.5477 32.7103 71.3422 32.7103V34.6454H63.2162V32.6474C64.0186 32.6474 64.8839 32.3799 64.9468 31.1764V19.9117C64.9468 19.5813 64.4119 18.653 63.2162 18.653V16.6471H69.1475V16.655ZM124.92 16.655H116.794V18.6609C117.99 18.6609 118.525 19.5891 118.525 19.9195V31.1842C118.462 32.3799 117.589 32.6552 116.794 32.6552V34.6533H124.92V32.7103C124.118 32.7103 123.19 32.0495 123.19 31.1134V20.0611C123.19 19.2588 124.055 18.6609 124.92 18.6609V16.655ZM51.1649 16.655C51.1649 17.1899 51.8257 17.7248 52.2268 17.8507C52.6988 17.5203 55.161 16.1201 57.0883 16.1201C59.0234 16.1201 60.0224 17.1191 60.0224 18.653V25.9845H55.3577V20.3128C55.3577 19.5813 55.161 19.0542 54.4924 18.9834C53.8237 18.9126 52.0931 20.3128 51.629 20.9815V31.1055C51.629 32.0416 52.5651 32.7024 53.3596 32.7024V34.6376H45.2336V32.6395C46.036 32.6395 46.9013 32.372 46.9642 31.1685V19.9038C46.9642 19.5734 46.4293 18.6452 45.2336 18.6452V16.6392H51.1649V16.655ZM105.199 16.655C105.199 17.1899 105.868 17.7248 106.269 17.8507C106.741 17.5203 109.203 16.1201 111.13 16.1201C113.058 16.1201 114.065 17.1191 114.065 18.653V25.9845H109.4V20.3128C109.4 19.5813 109.203 19.0542 108.535 18.9834C107.866 18.9126 106.135 20.3128 105.671 20.9815V31.1055C105.671 32.0416 106.599 32.7024 107.402 32.7024V34.6376H99.2758V32.6395C100.078 32.6395 100.936 32.372 101.006 31.1685V19.9038C101.006 19.5734 100.471 18.6452 99.2758 18.6452V16.6392H105.199V16.655ZM41.7095 29.0603H37.0526V30.8617C37.0526 31.5933 36.9188 33.1272 34.7241 33.1272C32.5294 33.1272 31.8607 31.6562 31.8607 30.5942V26.8026C31.8607 26.4644 32.1282 26.0002 32.5923 26.0002H41.7173V21.1388C41.7173 18.9362 41.2532 18.2676 40.3171 17.3394C39.381 16.4111 36.1164 16.1437 34.6533 16.1437C30.9246 16.1437 29.7211 16.6707 28.6591 17.5439C27.5893 18.4092 27.1881 20.2106 27.1881 21.54V29.076C27.1881 31.0741 27.5893 32.4743 28.8558 33.7408C30.1223 34.9994 33.9847 34.9994 34.787 34.9994C35.5894 34.9994 38.2482 35.0702 40.1834 33.67C42.1185 32.2541 41.7095 29.0603 41.7095 29.0603ZM31.8529 20.7927C31.8529 19.7229 32.1833 18.126 34.5196 18.126C36.8559 18.126 37.0526 19.8645 37.0526 20.7927V23.1919C37.0505 23.4041 36.9653 23.607 36.8153 23.757C36.6652 23.9071 36.4623 23.9923 36.2502 23.9943H32.6552C32.2619 23.9943 31.8529 23.6639 31.8529 23.2628V20.7927ZM95.1459 31.1134V21.1231C95.1459 19.5891 95.0751 17.9923 93.4782 16.8516C91.8814 15.7189 89.2776 15.7897 88.2786 15.7897C87.2795 15.7897 83.952 15.7897 82.4102 17.5203C80.8841 19.2588 81.1437 20.9186 81.1437 21.5872H85.5096C85.5096 21.5872 85.8085 19.3217 86.4142 18.7238C87.0121 18.126 88.6089 17.4573 89.844 18.5272C90.3002 18.9205 90.4812 19.4239 90.4812 19.9982V22.8616C90.4812 23.129 90.2137 23.5302 89.8754 23.5302C89.8754 23.5302 83.8104 23.6639 82.7485 24.4584C81.6865 25.2608 80.7504 25.7879 80.7504 28.722C80.7504 31.6562 81.482 32.789 82.3473 33.3868C83.2126 33.9846 83.6138 34.6533 87.547 34.6533H96.8765V32.7103C96.0742 32.7103 95.1459 32.0495 95.1459 31.1134ZM90.4812 32.254C90.4812 32.4192 90.2137 32.6552 90.0092 32.6552H87.7122C86.076 32.6552 85.6118 31.255 85.6118 30.3897V27.8253C85.6118 25.3316 88.2078 25.3867 89.2383 25.3867C90.2766 25.3867 90.4733 26.252 90.4733 26.8262V32.254H90.4812ZM120.547 13.1623C122.883 13.1623 124.771 12.4543 124.771 11.5811C124.771 10.708 122.883 10 120.547 10C118.218 10 116.33 10.708 116.33 11.5811C116.33 12.4543 118.218 13.1623 120.547 13.1623Z" fill="white"/>
<path d="M142.472 26.328C142.472 22.984 137.592 23.448 137.592 21.576C137.592 20.824 138.264 20.456 139.128 20.456C140.568 20.456 141.768 21.304 142.168 21.576V19.912C141.976 19.768 140.68 18.952 139.048 18.952C137.304 18.952 135.912 19.912 135.912 21.576C135.912 24.792 140.808 24.184 140.808 26.328C140.808 27.288 139.992 27.624 139.144 27.624C137.592 27.624 136.088 26.632 135.656 26.296V28.008C135.864 28.168 137.48 29.128 139.224 29.128C140.936 29.128 142.472 28.344 142.472 26.328ZM149.503 20.632H153.183V19.08H144.143V20.632H147.839V29H149.503V20.632ZM165.33 24.04C165.33 20.968 162.866 18.936 159.826 18.936C156.77 18.936 154.306 20.968 154.306 24.024C154.306 27.096 156.754 29.128 159.826 29.128C162.866 29.128 165.33 27.096 165.33 24.04ZM163.57 24.04C163.57 26.152 161.874 27.544 159.826 27.544C157.746 27.544 156.082 26.152 156.082 24.024C156.082 21.912 157.746 20.52 159.826 20.52C161.874 20.52 163.57 21.912 163.57 24.04ZM174.785 29H176.849L172.481 24.12C173.457 23.8 174.033 22.888 174.033 21.784C174.033 20.248 173.313 19.08 171.073 19.08H168.161V29H169.841V24.488H170.929L174.785 29ZM172.337 21.768C172.337 22.504 172.001 22.968 170.977 22.968H169.841V20.568H170.977C172.017 20.568 172.337 21.048 172.337 21.768ZM178.359 29H184.695V27.448H180.039V24.264H182.807V22.776H180.039V20.632H184.311V19.08H178.359V29Z" fill="white"/>
</svg>
