<svg width="36" height="35" viewBox="0 0 36 35" fill="none" xmlns="http://www.w3.org/2000/svg">
<rect x="0.262085" width="35" height="35" rx="17.5" fill="white" fill-opacity="0.5"/>
<path d="M22.6435 13.2077C22.5423 13.1553 22.4437 13.0979 22.3482 13.0357C22.0707 12.8522 21.8162 12.636 21.5903 12.3918C21.0244 11.7445 20.8131 11.0879 20.7357 10.6286H20.7384C20.6737 10.2466 20.7004 10 20.7051 10H18.1286V19.9611C18.1286 20.0944 18.1286 20.227 18.1233 20.3577C18.1233 20.3737 18.1213 20.3884 18.1206 20.4064C18.1206 20.413 18.1206 20.421 18.1186 20.4284V20.4344C18.0916 20.7917 17.9771 21.1369 17.7853 21.4395C17.5935 21.7422 17.3303 21.9931 17.0187 22.1702C16.6937 22.3551 16.3261 22.4521 15.9522 22.4515C14.7523 22.4515 13.779 21.4729 13.779 20.2644C13.779 19.0552 14.7523 18.0766 15.9522 18.0766C16.1795 18.0766 16.4055 18.1126 16.6214 18.1832L16.6248 15.5595C15.9688 15.4749 15.3025 15.5271 14.6678 15.713C14.0331 15.8989 13.4438 16.2143 12.9371 16.6394C12.4931 17.025 12.1197 17.4852 11.8339 17.9992C11.7252 18.1866 11.3146 18.9405 11.2653 20.163C11.234 20.8563 11.4426 21.5762 11.5419 21.8729V21.8796C11.6039 22.0542 11.8466 22.6515 12.2412 23.1548C12.5594 23.5587 12.9354 23.9136 13.3571 24.208V24.2013L13.3631 24.208C14.6096 25.0546 15.9928 24.9993 15.9928 24.9993C16.2321 24.9893 17.0341 24.9993 17.9447 24.568C18.9546 24.0893 19.5292 23.3767 19.5292 23.3767C19.8965 22.9509 20.1887 22.4655 20.3931 21.9415C20.6264 21.3283 20.7037 20.5937 20.7037 20.3004V15.0149C20.7351 15.0335 21.1517 15.3088 21.1517 15.3088C21.1517 15.3088 21.7516 15.6935 22.6869 15.9434C23.3575 16.1214 24.2621 16.1594 24.2621 16.1594V13.6017C23.9454 13.6363 23.3022 13.5363 22.6429 13.2084L22.6435 13.2077Z" fill="black"/>
</svg>
