<svg width="53" height="35" viewBox="0 0 53 35" fill="none" xmlns="http://www.w3.org/2000/svg">
<rect x="0.5" width="51.762" height="35" rx="17.5" fill="white" fill-opacity="0.5"/>
<path fill-rule="evenodd" clip-rule="evenodd" d="M10.5 11.2532C10.5 10.9208 10.632 10.6021 10.867 10.3671C11.1021 10.132 11.4208 10 11.7532 10H24.2455C24.4102 9.99973 24.5733 10.032 24.7255 10.0948C24.8778 10.1577 25.0161 10.25 25.1327 10.3664C25.2492 10.4828 25.3416 10.621 25.4047 10.7732C25.4677 10.9254 25.5001 11.0885 25.5 11.2532V23.7455C25.5002 23.9102 25.4679 24.0734 25.4049 24.2256C25.342 24.3778 25.2497 24.5162 25.1332 24.6327C25.0167 24.7492 24.8784 24.8417 24.7262 24.9047C24.574 24.9677 24.4109 25.0001 24.2461 25H11.7532C11.5886 25 11.4255 24.9676 11.2735 24.9045C11.1214 24.8415 10.9832 24.7492 10.8668 24.6327C10.7504 24.5163 10.6581 24.378 10.5952 24.2259C10.5323 24.0738 10.4999 23.9108 10.5 23.7461V11.2532ZM16.4373 15.7191H18.4684V16.7391C18.7616 16.1527 19.5116 15.625 20.6386 15.625C22.7993 15.625 23.3114 16.793 23.3114 18.9359V22.9055H21.1248V19.4241C21.1248 18.2036 20.8316 17.515 20.087 17.515C19.0541 17.515 18.6245 18.2575 18.6245 19.4241V22.9055H16.4373V15.7191ZM12.6873 22.812H14.8745V15.625H12.6873V22.812ZM15.1875 13.2809C15.1916 13.4682 15.1583 13.6544 15.0895 13.8286C15.0207 14.0028 14.9177 14.1616 14.7867 14.2955C14.6558 14.4294 14.4993 14.5358 14.3267 14.6084C14.154 14.6811 13.9686 14.7185 13.7812 14.7185C13.5939 14.7185 13.4085 14.6811 13.2358 14.6084C13.0632 14.5358 12.9067 14.4294 12.7758 14.2955C12.6448 14.1616 12.5418 14.0028 12.473 13.8286C12.4042 13.6544 12.3709 13.4682 12.375 13.2809C12.3831 12.9133 12.5348 12.5635 12.7976 12.3064C13.0605 12.0493 13.4136 11.9053 13.7812 11.9053C14.1489 11.9053 14.502 12.0493 14.7649 12.3064C15.0277 12.5635 15.1794 12.9133 15.1875 13.2809Z" fill="black"/>
<path d="M39.63 18.074H42.262V16.856H39.63V14.21H38.146V16.856H35.5V18.074H38.146V20.79H39.63V18.074Z" fill="black"/>
</svg>
