<svg width="53" height="35" viewBox="0 0 53 35" fill="none" xmlns="http://www.w3.org/2000/svg">
<rect x="0.262085" width="51.762" height="35" rx="17.5" fill="white" fill-opacity="0.5"/>
<path d="M25.2621 12.8493C24.7105 13.0937 24.1179 13.2589 23.4949 13.3335C24.1377 12.9489 24.6186 12.3435 24.8479 11.6304C24.244 11.9891 23.583 12.2416 22.8938 12.3769C22.4303 11.882 21.8163 11.554 21.1473 11.4438C20.4783 11.3336 19.7916 11.4473 19.1938 11.7673C18.596 12.0874 18.1207 12.5958 17.8415 13.2137C17.5623 13.8316 17.4949 14.5244 17.6498 15.1846C16.4261 15.1231 15.229 14.8051 14.1362 14.251C13.0434 13.697 12.0793 12.9194 11.3065 11.9687C11.0423 12.4245 10.8903 12.953 10.8903 13.5158C10.89 14.0225 11.0148 14.5215 11.2536 14.9684C11.4924 15.4153 11.8378 15.7963 12.2591 16.0777C11.7705 16.0622 11.2926 15.9301 10.8652 15.6926V15.7322C10.8652 16.4429 11.111 17.1316 11.561 17.6817C12.011 18.2317 12.6374 18.6092 13.334 18.7499C12.8806 18.8726 12.4054 18.8907 11.944 18.8028C12.1406 19.4142 12.5234 19.949 13.0389 20.332C13.5544 20.7151 14.1769 20.9274 14.819 20.9392C13.7289 21.795 12.3826 22.2592 10.9967 22.2571C10.7512 22.2572 10.5059 22.2429 10.2621 22.2142C11.6689 23.1187 13.3064 23.5987 14.9789 23.5969C20.6404 23.5969 23.7354 18.9078 23.7354 14.841C23.7354 14.7089 23.7321 14.5755 23.7261 14.4433C24.3282 14.008 24.8478 13.4689 25.2608 12.8513L25.2621 12.8493Z" fill="black"/>
<path d="M39.3921 18.074H42.0241V16.856H39.3921V14.21H37.9081V16.856H35.2621V18.074H37.9081V20.79H39.3921V18.074Z" fill="black"/>
</svg>
