<svg width="53" height="35" viewBox="0 0 53 35" fill="none" xmlns="http://www.w3.org/2000/svg">
<rect x="0.738037" width="51.762" height="35" rx="17.5" fill="white" fill-opacity="0.5"/>
<path fill-rule="evenodd" clip-rule="evenodd" d="M15.146 10.045C15.9458 10.0082 16.2008 10 18.238 10C20.2753 10 20.5303 10.0089 21.3294 10.045C22.1285 10.0811 22.6739 10.2086 23.1512 10.3934C23.651 10.5823 24.1044 10.8775 24.4794 11.2593C24.8612 11.6336 25.1558 12.0864 25.3439 12.5868C25.5294 13.0641 25.6562 13.6095 25.693 14.4073C25.7299 15.2084 25.738 15.4634 25.738 17.5C25.738 19.5373 25.7292 19.7923 25.693 20.592C25.6569 21.3898 25.5294 21.9352 25.3439 22.4125C25.1558 22.913 24.8607 23.3665 24.4794 23.7414C24.1044 24.1232 23.651 24.4177 23.1512 24.6059C22.6739 24.7914 22.1285 24.9182 21.3308 24.955C20.5303 24.9918 20.2753 25 18.238 25C16.2008 25 15.9458 24.9911 15.146 24.955C14.3483 24.9189 13.8028 24.7914 13.3255 24.6059C12.825 24.4177 12.3716 24.1227 11.9967 23.7414C11.6151 23.3668 11.3198 22.9136 11.1314 22.4132C10.9467 21.9359 10.8199 21.3905 10.783 20.5927C10.7462 19.7916 10.738 19.5366 10.738 17.5C10.738 15.4627 10.7469 15.2077 10.783 14.4086C10.8192 13.6095 10.9467 13.0641 11.1314 12.5868C11.3201 12.0864 11.6156 11.6332 11.9974 11.2586C12.3717 10.8772 12.8247 10.5819 13.3249 10.3934C13.8021 10.2086 14.3483 10.0818 15.146 10.045ZM21.2687 11.395C20.4778 11.3589 20.2405 11.3514 18.238 11.3514C16.2355 11.3514 15.9983 11.3589 15.2074 11.395C14.4758 11.4284 14.0789 11.5505 13.8144 11.6534C13.4646 11.7898 13.2144 11.9514 12.9519 12.2139C12.7031 12.4559 12.5116 12.7506 12.3914 13.0764C12.2885 13.3409 12.1664 13.7377 12.133 14.4693C12.0969 15.2602 12.0894 15.4975 12.0894 17.5C12.0894 19.5025 12.0969 19.7398 12.133 20.5307C12.1664 21.2623 12.2885 21.6591 12.3914 21.9236C12.5114 22.2489 12.703 22.5441 12.9519 22.7861C13.1939 23.035 13.4892 23.2266 13.8144 23.3466C14.0789 23.4495 14.4758 23.5716 15.2074 23.605C15.9983 23.6411 16.2349 23.6486 18.238 23.6486C20.2412 23.6486 20.4778 23.6411 21.2687 23.605C22.0003 23.5716 22.3971 23.4495 22.6617 23.3466C23.0114 23.2102 23.2617 23.0486 23.5242 22.7861C23.773 22.5441 23.9646 22.2489 24.0846 21.9236C24.1876 21.6591 24.3096 21.2623 24.343 20.5307C24.3792 19.7398 24.3867 19.5025 24.3867 17.5C24.3867 15.4975 24.3792 15.2602 24.343 14.4693C24.3096 13.7377 24.1876 13.3409 24.0846 13.0764C23.9483 12.7266 23.7867 12.4764 23.5242 12.2139C23.2821 11.965 22.9874 11.7736 22.6617 11.6534C22.3971 11.5505 22.0003 11.4284 21.2687 11.395ZM17.2801 19.812C17.8151 20.0347 18.4108 20.0648 18.9655 19.8971C19.5202 19.7294 19.9994 19.3743 20.3214 18.8924C20.6434 18.4106 20.7881 17.832 20.7308 17.2553C20.6735 16.6786 20.4178 16.1398 20.0074 15.7307C19.7457 15.4692 19.4293 15.269 19.081 15.1444C18.7327 15.0199 18.3611 14.9741 17.9929 15.0104C17.6248 15.0467 17.2693 15.1642 16.952 15.3544C16.6347 15.5446 16.3635 15.8028 16.158 16.1104C15.9525 16.4179 15.8177 16.7672 15.7634 17.1332C15.7091 17.4991 15.7365 17.8725 15.8439 18.2265C15.9512 18.5805 16.1356 18.9063 16.384 19.1805C16.6323 19.4547 16.9384 19.6704 17.2801 19.812ZM15.5121 14.7741C15.8701 14.4161 16.2951 14.1322 16.7628 13.9384C17.2305 13.7447 17.7318 13.645 18.238 13.645C18.7443 13.645 19.2456 13.7447 19.7133 13.9384C20.181 14.1322 20.606 14.4161 20.9639 14.7741C21.3219 15.1321 21.6059 15.557 21.7996 16.0247C21.9933 16.4925 22.0931 16.9938 22.0931 17.5C22.0931 18.0062 21.9933 18.5075 21.7996 18.9753C21.6059 19.443 21.3219 19.8679 20.9639 20.2259C20.241 20.9489 19.2605 21.355 18.238 21.355C17.2156 21.355 16.2351 20.9489 15.5121 20.2259C14.7892 19.503 14.383 18.5224 14.383 17.5C14.383 16.4776 14.7892 15.497 15.5121 14.7741ZM22.948 14.2191C23.0367 14.1354 23.1078 14.0348 23.1569 13.9232C23.206 13.8115 23.2322 13.6912 23.234 13.5693C23.2358 13.4473 23.2131 13.3263 23.1672 13.2133C23.1214 13.1003 23.0533 12.9976 22.9671 12.9114C22.8809 12.8252 22.7782 12.7571 22.6652 12.7113C22.5522 12.6654 22.4312 12.6427 22.3092 12.6445C22.1873 12.6463 22.0669 12.6725 21.9553 12.7216C21.8437 12.7707 21.7431 12.8417 21.6594 12.9305C21.4967 13.103 21.4076 13.3321 21.411 13.5693C21.4145 13.8064 21.5102 14.0329 21.6779 14.2006C21.8456 14.3683 22.0721 14.464 22.3092 14.4675C22.5464 14.4709 22.7755 14.3818 22.948 14.2191Z" fill="black"/>
<path d="M39.868 18.074H42.5V16.856H39.868V14.21H38.384V16.856H35.738V18.074H38.384V20.79H39.868V18.074Z" fill="black"/>
</svg>
