<svg width="53" height="35" viewBox="0 0 53 35" fill="none" xmlns="http://www.w3.org/2000/svg">
<rect x="0.976013" width="51.762" height="35" rx="17.5" fill="white" fill-opacity="0.5"/>
<path d="M25.376 10H11.576C11.2441 10 10.976 10.2681 10.976 10.6V24.4C10.976 24.7319 11.2441 25 11.576 25H25.376C25.7079 25 25.976 24.7319 25.976 24.4V10.6C25.976 10.2681 25.7079 10 25.376 10ZM22.4454 14.3781C21.506 14.3781 21.3241 14.8244 21.3241 15.4806V16.9262H23.5666L23.2741 19.1894H21.3241V25H18.986V19.1912H17.0304V16.9262H18.986V15.2575C18.986 13.3206 20.1691 12.265 21.8979 12.265C22.7266 12.265 23.4373 12.3269 23.6454 12.355V14.3781H22.4454Z" fill="black"/>
<path d="M40.106 18.074H42.738V16.856H40.106V14.21H38.622V16.856H35.976V18.074H38.622V20.79H40.106V18.074Z" fill="black"/>
</svg>
