<svg width="36" height="35" viewBox="0 0 36 35" fill="none" xmlns="http://www.w3.org/2000/svg">
<rect x="0.0240479" width="35" height="35" rx="17.5" fill="white" fill-opacity="0.5"/>
<path d="M24.71 14.0673C24.625 13.7644 24.4596 13.4901 24.2313 13.2737C23.9965 13.0506 23.7087 12.891 23.3951 12.81C22.2215 12.5007 17.5197 12.5007 17.5197 12.5007C15.5595 12.4784 13.5998 12.5764 11.6517 12.7944C11.3381 12.8814 11.0509 13.0445 10.8156 13.2693C10.5844 13.4918 10.4169 13.7661 10.3294 14.0667C10.1192 15.1989 10.0171 16.3485 10.0244 17.5C10.0169 18.6505 10.1188 19.7997 10.3294 20.9333C10.415 21.2326 10.5819 21.5057 10.8137 21.7263C11.0455 21.9469 11.3343 22.1062 11.6517 22.1906C12.8409 22.4993 17.5197 22.4993 17.5197 22.4993C19.4823 22.5216 21.4445 22.4236 23.3951 22.2056C23.7087 22.1246 23.9965 21.965 24.2313 21.7419C24.4595 21.5255 24.6248 21.2512 24.7093 20.9483C24.925 19.8165 25.0298 18.6664 25.0224 17.5144C25.0386 16.3574 24.9339 15.2025 24.71 14.0673ZM16.0249 19.6397V15.3609L19.9368 17.5006L16.0249 19.6397Z" fill="black"/>
</svg>
