<svg width="37" height="50" viewBox="0 0 37 50" fill="none" xmlns="http://www.w3.org/2000/svg">
<path d="M35.7589 20.3571C35.558 20.625 35.4688 21.1607 35.1786 21.6071C34.7768 22.2321 34.1964 22.9911 33.9063 22.9911C33.75 22.9911 33.7054 22.6339 33.7054 22.6339C33.7054 22.6339 33.5045 22.0312 33.8393 21.2723C34.0848 20.7366 34.2188 20.5804 34.5313 20.1786C34.8214 19.7991 35 19.5982 35.2009 19.1964C35.3795 18.8393 35.4241 18.7723 35.5357 18.2143C35.558 18.0804 35.5134 17.7902 35.3795 17.8125C35.2009 17.8125 34.7098 18.8839 34.1964 19.4866C33.7054 20.0446 32.7902 20.7589 32.7902 20.7589C32.7902 20.7589 32.7009 20.8259 32.7009 20.6473C32.6786 20.4911 32.6563 20.0223 32.7455 19.5982C32.8348 19.1741 32.9688 18.75 33.3482 18.1027C33.7723 17.3661 34.308 16.8527 34.5759 16.5848C34.6875 16.4732 35.0223 16.2723 34.8438 16.1607C34.6875 16.0714 34.2188 16.4732 33.8616 16.7411C33.4152 17.0759 33.2589 17.1652 32.8125 17.7009C32.3661 18.2366 32.2545 18.4598 32.2545 18.4598C32.2545 18.4598 31.8304 19.1518 31.7188 19.8214C31.6072 20.4911 31.6072 20.8705 31.6072 20.8705C31.6072 20.8705 31.6072 21.4732 31.6741 21.8304C31.7188 22.2098 31.875 22.7902 31.875 22.7902C31.875 22.7902 32.0982 23.4375 32.1875 23.8393C32.2768 24.2411 32.433 25.4241 32.433 25.4241C32.433 25.4241 32.5447 26.2723 32.4777 27.0759C32.4107 27.8795 32.3438 28.3482 32.2545 28.5937C32.1652 28.8393 31.9197 29.4866 31.5179 29.933C31.1384 30.3571 31.0491 30.4241 31.0491 30.4241C31.0491 30.4241 30.6473 30.7589 30.3125 30.9375C29.9777 31.1161 29.4866 31.3393 29.2634 31.4062C29.0402 31.4509 28.7277 31.4732 28.7054 31.4732H28.4152L28.3259 31.4062L28.2813 31.2277C28.2813 31.2277 28.058 30.3571 27.7902 29.7991C27.567 29.3304 27.0982 28.683 27.0982 28.683C27.0982 28.683 26.2947 27.5893 25.6697 26.9866C24.9554 26.2723 24.1518 25.7366 23.6607 25.3571C23.4822 25.2232 23.0804 24.9777 23.0804 24.9777C23.0804 24.9777 21.4509 23.3482 20.8705 22.0536C20.4688 21.1607 20.2009 20.5134 20.3125 19.5312C20.3348 19.308 20.4241 18.8839 20.4688 18.8839L20.7589 18.9732C20.7813 18.9955 21.0491 19.2411 21.2947 19.3304C21.4286 19.375 21.6741 19.4196 21.6741 19.4196C21.6741 19.4196 21.875 19.442 21.9866 19.4643C22.0982 19.5089 22.2991 19.5759 22.433 19.6429C22.567 19.7098 22.7679 19.8437 22.7679 19.8437L23.1473 20.1339L23.5491 20.4464C23.5491 20.4464 23.7723 20.6027 23.8393 20.625C23.9063 20.6473 23.9509 20.6696 23.9732 20.6696H24.0625C24.0625 20.6696 24.1518 20.6473 24.1741 20.558C24.1964 20.4464 24.0625 20.5357 23.8616 20.3125C23.6384 20.1116 23.5491 19.933 23.5491 19.933C23.5491 19.933 23.5045 19.7545 23.3259 19.5536C23.1473 19.3527 22.9241 19.1741 22.9241 19.1741C22.9241 19.1741 22.7679 19.0625 22.5447 18.9955C22.3214 18.9286 22.2545 18.9286 22.2322 18.8393C22.2098 18.75 22.5 18.7946 22.5 18.7946C22.5 18.7946 22.8348 18.8393 23.1027 18.9732C23.3705 19.1071 23.5268 19.2634 23.5268 19.2634L23.7054 19.4196L23.817 19.5312L23.9286 19.5982C23.9286 19.5982 24.0402 19.7098 24.0625 19.5536C24.0848 19.4196 24.0402 19.308 24.0179 19.2857L23.9063 19.1741L23.4598 18.7946C23.3259 18.6607 23.2366 18.5714 23.1027 18.4821C22.9688 18.3929 22.7679 18.2589 22.5223 18.1696C22.2991 18.0804 22.1652 18.1027 21.942 17.9911C21.7857 17.9241 21.6518 17.8795 21.5625 17.7455C21.5402 17.7232 21.4286 17.6339 21.6295 17.6786C21.8304 17.7232 21.9643 17.7902 22.1875 17.8348C22.5447 17.9241 22.7679 17.9241 23.1027 18.0357C23.2366 18.0804 23.4152 18.1696 23.4152 18.1696L23.8393 18.3482C23.8393 18.3482 24.4197 18.6607 24.8214 18.683C25.2232 18.7054 25.558 18.6161 25.692 18.5491C25.8259 18.5045 26.0714 18.3482 26.1384 18.2812C26.2054 18.2143 26.25 18.1473 26.25 18.1473L26.2947 18.0357V17.9464C26.1831 17.8125 25.9598 18.1696 25.6027 18.2366C25.2232 18.3036 25.2455 18.3482 25 18.3036C24.7322 18.2589 24.5759 18.192 24.375 17.9911C24.0179 17.6562 23.8839 17.3437 23.4152 17.1429C23.2143 17.0536 22.8572 16.9643 22.8572 16.9643C22.8572 16.9643 22.3661 16.808 22.0982 16.6518C21.8973 16.5402 21.4732 16.4732 21.6072 16.2946C21.6741 16.2054 22.2098 16.5179 22.6116 16.5625C22.9018 16.6071 23.1027 16.5848 23.3259 16.5848C23.5491 16.5848 23.8616 16.5179 23.9063 16.5179C23.9509 16.4955 24.1295 16.5179 24.2857 16.5625C24.442 16.6071 24.5313 16.6741 24.6875 16.7411C24.8438 16.808 25.0223 16.9196 25.067 16.9196L25.1563 16.942L25.2009 16.8973L25.2232 16.8527L25.2009 16.808L25.1339 16.7634L25 16.6741C25 16.6741 24.7991 16.5625 24.6206 16.3839C24.442 16.2054 24.2857 16.0045 24.0179 15.9152C23.75 15.8259 23.4375 15.7812 23.4375 15.7812L23.125 15.7589L22.9911 15.7366C22.9911 15.7366 22.7679 15.6696 22.9464 15.625C23.125 15.5804 23.2143 15.558 23.2589 15.558C23.2813 15.5357 23.5938 15.5134 23.7723 15.5804C23.9509 15.6473 24.2411 15.8036 24.2634 15.8036C24.2857 15.8259 24.5536 16.0268 24.8438 16.0937C25.1339 16.1607 25.5134 16.183 25.5134 16.183L25.692 16.1384L25.7813 16.1161L25.8482 16.0714L25.8259 15.9598C25.8259 15.9598 25.8259 15.8705 25.692 15.8482C25.558 15.8259 25.2902 15.7812 25.0447 15.6027C24.7991 15.4241 24.6206 15.2455 24.6206 15.2455C24.6206 15.2455 24.442 15.0893 24.0848 15C23.75 14.9107 23.6384 14.9107 23.6384 14.9107L23.5268 14.8661L23.2813 14.7545C23.2813 14.7545 23.1697 14.6875 23.0804 14.5759C22.9911 14.4643 22.8572 14.2634 23.2366 14.375C23.6161 14.4866 23.7054 14.5536 23.7054 14.5536C23.7054 14.5536 23.9063 14.7545 24.0848 14.7768C24.1964 14.7991 24.2857 14.8214 24.3527 14.7321C24.4643 14.6205 24.1518 14.4866 23.9286 14.3304C23.75 14.2187 23.5714 13.9286 23.5714 13.9286C23.5714 13.9286 23.4375 13.817 23.6384 13.8616C23.8393 13.9062 24.1964 14.1295 24.1964 14.1295C24.1964 14.1295 24.375 14.2187 24.4643 14.2411C24.5313 14.2634 24.7098 14.375 24.7991 14.4196C24.8661 14.442 25.067 14.4866 25.2009 14.5536C25.3795 14.6652 25.4688 14.8437 25.558 14.9107C25.6473 14.9777 25.7143 15.0893 25.8259 15.1116C25.9375 15.1339 25.9598 15.1786 26.0268 15.1339C26.0938 15.0893 26.1161 15.067 26.1161 15.067C26.1161 15.067 26.1384 15.0223 26.0268 14.9554C25.9152 14.8884 25.7813 14.7098 25.7813 14.7098L25.7366 14.6205L25.7143 14.5312L25.6027 14.3527L25.4018 14.0625C25.4018 14.0625 25.0893 13.6384 24.7991 13.4821C24.5313 13.3259 24.3304 13.2366 24.3304 13.2366C24.3304 13.2366 24.1964 13.1696 24.1295 13.125C24.0179 13.0357 23.9732 12.9687 23.8839 12.8571C23.7723 12.7232 23.7277 12.6339 23.5938 12.5C23.3482 12.2545 22.5893 12.1205 22.8795 11.942C23.0357 11.8527 23.2366 11.8973 23.3259 11.9196C23.4152 11.942 23.6161 12.0312 23.817 12.0982C23.9509 12.1429 24.0402 12.1429 24.1741 12.1875C24.3081 12.2321 24.4643 12.2545 24.5313 12.2991C24.5982 12.3437 24.6652 12.433 24.7098 12.4554C24.7322 12.4777 24.9107 12.7679 25.2232 12.9241C25.5357 13.0804 25.692 13.192 26.0045 13.2143C26.25 13.2366 26.6518 13.1473 26.6518 13.1473C26.6518 13.1473 26.7634 13.1027 26.6741 12.9911C26.5625 12.8795 26.5625 12.8571 26.4732 12.8348C26.1161 12.7009 25.8259 12.7455 25.558 12.4777C25.4464 12.3661 25.4018 12.3437 25.3125 12.1652C25.2232 11.9866 25.2679 11.942 25.2009 11.8304C25.1563 11.7187 25.0447 11.5625 25.0447 11.5625C25.0447 11.5625 24.7098 11.1607 24.3527 10.9598C23.9732 10.7589 23.7054 10.558 23.6607 10.5134C23.5938 10.4687 23.4598 10.2902 23.4598 10.2902L23.3482 10.1116L23.2813 9.97767C23.2366 9.73214 23.683 10.0446 23.9286 10.1339C24.3304 10.2679 24.5313 10.4464 24.933 10.5804C25.1563 10.6473 25.2902 10.6473 25.5134 10.7366C25.8929 10.8929 26.0045 11.2723 26.4063 11.317C26.6295 11.3393 27.0759 11.4286 26.9866 11.2277C26.8973 11.0045 26.4509 11.0045 26.2277 10.7366C26.1161 10.625 26.1161 10.5134 26.0045 10.4018C25.8259 10.1786 25.4018 9.97767 25.4018 9.97767C25.4018 9.97767 25.2679 9.86607 25.1116 9.55357C24.9777 9.24107 24.6429 9.01785 24.0402 8.72767C23.6384 8.52678 22.8348 8.48214 23.1473 8.28125C23.3259 8.14732 23.4822 8.16964 23.7277 8.2366C23.9732 8.32589 24.0625 8.4375 24.2634 8.52678C24.4643 8.61607 24.5536 8.63839 24.5982 8.66071C24.6429 8.68303 24.7991 8.75 24.8661 8.75C24.9107 8.77232 25.2455 8.81696 25.3348 8.83928L25.7813 8.95089L26.1384 9.08482C26.1384 9.08482 26.317 9.15178 26.4286 9.15178C26.5402 9.15178 26.7188 9.10714 26.7188 9.10714L26.8527 9.01785L26.875 8.97321C26.875 8.97321 26.942 8.8616 26.7634 8.83928C26.6072 8.81696 26.5179 8.81696 26.4955 8.81696L26.3393 8.77232L26.2723 8.75C26.2723 8.75 25.9598 8.50446 25.692 8.39285C25.4018 8.28125 25.3572 8.25892 25.3572 8.25892L25.2455 8.2366L25.1116 8.21428C25.1116 8.21428 25 8.21428 24.8214 8.05803C24.6429 7.90178 24.5759 7.8125 24.4197 7.65625L24.2188 7.45535C24.2188 7.45535 24.0402 7.32142 24.0402 7.20982C24.0625 7.03125 24.442 7.41071 24.442 7.41071L24.7098 7.58928C24.7098 7.58928 24.933 7.74553 25.3348 7.76785C25.7366 7.79017 26.2277 7.65625 26.2277 7.65625C26.2277 7.65625 26.2947 7.6116 26.5179 7.67857C26.7411 7.74553 26.9197 7.87946 26.9197 7.87946L27.0982 8.03571L27.3661 8.32589L27.4107 8.30357C27.4331 8.28125 27.5447 8.16964 27.3438 7.9241C27.1429 7.67857 26.808 7.45535 26.808 7.45535C26.808 7.45535 26.3616 7.1875 25.9152 7.09821C25.4688 7.00892 25.2679 7.00892 25.2679 7.00892C25.2679 7.00892 24.9331 7.00892 24.7322 6.78571C24.5313 6.5625 24.3973 6.33928 24.3973 6.33928L24.3304 6.02678C24.3304 6.02678 24.2188 5.89285 23.9955 5.80357C23.7947 5.71428 23.5714 5.58035 23.5714 5.58035C23.5714 5.58035 23.2366 5.46875 23.2143 5.3125C23.1473 5.02232 23.7723 5.3125 24.1072 5.37946C24.4197 5.44642 24.5536 5.55803 24.8661 5.625C25.1339 5.69196 25.2902 5.71428 25.5804 5.69196C25.7366 5.69196 25.8259 5.66964 25.9822 5.64732C26.1384 5.64732 26.25 5.625 26.4063 5.64732C26.6295 5.69196 26.7188 5.80357 26.942 5.89285C27.0759 5.95982 27.1429 6.02678 27.2991 6.0491C27.4331 6.07142 27.7009 6.16071 27.6563 6.02678L27.5893 5.9375C27.4777 5.78125 27.3438 5.78125 27.2098 5.66964C26.9197 5.44642 26.7857 5.26785 26.4509 5.1116C26.2277 5 26.0938 4.95535 25.8482 4.91071C25.6697 4.88839 25.5357 4.93303 25.3572 4.88839C25.1563 4.82142 25.0893 4.73214 24.8884 4.62053C24.5759 4.44196 24.3973 4.28571 24.0625 4.15178C23.8393 4.0625 23.4598 3.97321 23.4598 3.97321L23.3036 3.95089L23.2366 3.92857C22.9241 3.81696 23.7947 3.57142 24.1964 3.45982C24.3973 3.41517 24.4866 3.37053 24.6875 3.39285C24.8661 3.41517 25.067 3.66071 25.2679 3.5491C25.558 3.39285 24.9331 2.96875 24.7322 2.90178C24.4643 2.79017 23.9955 2.87946 23.9955 2.87946L22.9688 2.85714L22.6786 2.8125C22.6786 2.8125 22.5 2.8125 22.3661 2.65625C22.2322 2.5 21.7188 1.875 21.1384 1.78571C20.5357 1.69642 20.3572 1.78571 20.3125 1.74107C19.7991 0.937496 19.2634 0.758924 18.8616 0.37946C18.75 0.267853 18.5714 0.0223171 18.5268 0.0446385C18.4822 0.0669599 18.4152 0.401781 18.3036 0.69196C18.1697 1.02678 18.2589 1.18303 18.3259 1.31696C18.4152 1.45089 18.5268 1.54017 18.3036 1.6741C18.0804 1.80803 17.7902 1.76339 17.7902 1.76339C17.7902 1.76339 17.5447 1.71875 17.3438 1.60714C17.1429 1.51785 16.7188 1.33928 16.7188 1.33928C16.7188 1.33928 16.317 1.22767 16.0491 1.25C15.7813 1.27232 15.7589 1.29464 15.558 1.31696C15.4464 1.31696 15.4018 1.31696 15.2902 1.33928C15.2009 1.3616 15.0893 1.29464 15.0893 1.40625C15.0893 1.51785 15.3125 1.51785 15.4688 1.58482C15.625 1.65178 15.9822 1.65178 15.9152 1.74107C15.8259 1.83035 15.4911 1.85267 15.4688 1.83035C15.4464 1.83035 15.2232 1.78571 15.0447 1.78571C14.7545 1.80803 14.7322 1.80803 14.308 2.00892C14.2411 2.03125 14.2634 2.1875 14.3973 2.14285C14.5536 2.09821 14.7768 2.05357 15.0223 2.05357C15.2902 2.05357 15.4464 2.14285 15.7143 2.20982C15.9375 2.27678 15.9598 2.32142 16.2947 2.36607C16.3616 2.36607 16.4956 2.32142 16.4956 2.41071C16.4956 2.45535 16.4063 2.52232 16.4063 2.52232C16.4063 2.52232 16.2054 2.56696 16.2277 2.63392C16.2723 2.72321 16.4509 2.63392 16.5402 2.63392C16.6295 2.63392 16.7634 2.65625 16.7411 2.74553L16.6964 2.8125C16.4509 2.87946 16.317 2.9241 16.0938 3.01339C15.5357 3.2366 15.3125 3.50446 14.7768 3.77232C14.2634 4.01785 13.4375 4.33035 13.4375 4.33035C13.4375 4.33035 13.192 4.46428 12.8348 4.55357C12.4777 4.64285 12.4554 4.62053 12.2098 4.66517C11.9643 4.6875 11.8527 4.73214 11.6518 4.84375C11.5179 4.91071 11.4509 4.97767 11.3393 5.08928L11.0268 5.55803L10.8482 5.82589C10.8036 5.91517 10.7589 5.95982 10.7366 6.0491C10.692 6.16071 10.6697 6.20535 10.6473 6.31696C10.5804 6.58482 10.6473 6.74107 10.692 7.00892C10.7143 7.07589 10.7143 7.12053 10.7366 7.1875C10.7589 7.25446 10.8482 7.32142 10.8482 7.32142L10.9375 7.34375C10.9375 7.34375 11.25 7.32142 11.4509 7.27678C11.6518 7.23214 11.942 7.16517 11.942 7.16517L12.3214 7.05357L12.567 6.96428C12.567 6.96428 12.7232 6.96428 12.7455 7.05357C12.7679 7.12053 12.7009 7.23214 12.7009 7.23214C12.7009 7.23214 12.567 7.2991 12.4554 7.34375C12.3438 7.38839 12.0759 7.45535 12.0536 7.47767L11.7634 7.56696L11.5179 7.58928C11.5179 7.58928 11.4732 7.6116 11.4286 7.67857C11.3839 7.74553 11.3839 7.74553 11.3839 7.79017C11.4286 7.83482 11.4509 7.87946 11.4955 7.9241C11.5848 7.99107 11.6295 8.03571 11.7411 8.05803C11.8973 8.125 11.9866 8.10267 12.1429 8.10267C12.3661 8.10267 12.5 8.05803 12.7009 7.96875C12.8795 7.85714 12.9464 7.85714 13.192 7.76785C13.2589 7.74553 13.3929 7.72321 13.4375 7.72321C13.8616 7.67857 14.1072 7.74553 14.5313 7.8125C14.9554 7.87946 15.1563 8.01339 15.5804 8.08035C16.0268 8.14732 16.2947 8.28125 16.7634 8.16964C16.9866 8.125 17.1205 8.01339 17.2322 8.2366C17.3438 8.4375 17.3214 8.5491 17.3214 8.5491C17.3214 8.5491 17.3214 8.68303 17.1652 9.10714C17.0089 9.53125 16.5179 10.5804 16.5179 10.5804L16.1831 11.25C16.1831 11.25 15.9152 11.7857 15.2902 12.4777C14.6652 13.1696 14.6205 13.2143 14.6205 13.2143C14.6205 13.2143 14.2857 13.4598 13.9509 13.8839C13.6161 14.308 13.6161 14.4643 13.3036 14.7768C13.1027 14.9777 12.9911 15.0893 12.7455 15.2455C12.5 15.4018 12.2098 15.3571 11.4286 15.8929C10.7589 16.3616 10.4018 16.7411 10.3572 16.7187C10.3125 16.6964 10.0893 16.5179 10 16.4732C9.93305 16.4286 8.63841 15.558 8.63841 15.558L8.10269 15.2009L7.85716 15.0446L7.81251 14.9554L7.67859 14.7768C7.67859 14.7768 7.47769 14.5312 7.23216 14.3304C6.98662 14.1071 6.71876 13.9286 6.31698 13.8393C5.93751 13.7277 5.69198 13.6607 5.31251 13.7946C5.06698 13.8839 4.93305 13.9732 4.75448 14.1518C4.53126 14.375 4.48662 14.5536 4.30805 14.8214C4.12948 15.0893 3.95091 15.3348 3.86162 15.4687C3.77234 15.6027 3.59376 15.9598 3.59376 15.9598C3.59376 15.9598 3.14734 16.6741 2.9018 17.1429C2.61162 17.6562 2.50001 17.9687 2.23216 18.4598C1.80805 19.2411 1.20537 20.0446 1.04912 20.4018C0.892872 20.7589 0.87055 20.8036 0.87055 20.8036C0.87055 20.8036 0.825907 21.0045 0.803586 21.1384C0.781264 21.2723 0.781265 21.4955 0.758943 21.5848C0.736622 21.6964 0.669657 21.808 0.647336 21.8304C0.625015 21.8527 0.379479 22.3661 0.290193 22.7009C0.200907 23.0357 1.45584e-05 24.0848 0.24555 24.2187C0.491086 24.3527 2.29912 23.5714 2.54466 22.8125C2.70091 22.3214 2.05359 22.0759 2.23216 21.6295C2.29912 21.4732 2.34376 21.4509 2.45537 21.2946C2.63394 21.0045 2.56698 20.4018 2.9018 19.8437C3.14734 19.442 3.63841 18.9286 4.30805 18.1696C4.73216 17.7009 5.13394 16.942 5.13394 16.942C5.13394 16.942 5.22323 16.6741 5.4018 16.7187C5.60269 16.7634 5.78126 16.7411 5.78126 16.7411L5.87055 16.808L6.04912 16.9866L6.31698 17.3884C6.31698 17.3884 6.76341 18.0357 6.91966 18.2143C7.07591 18.3929 7.23216 18.5268 7.45537 18.7054C7.70091 18.9286 7.79019 19.0402 8.10269 19.2857C8.54912 19.6429 8.39287 19.7768 7.81251 19.4643C7.61162 19.3527 7.29912 19.2411 7.05359 19.1741C6.78573 19.1071 5.78126 18.8393 5.26787 18.7723C4.7768 18.7054 4.68751 18.7277 4.68751 18.7277C4.68751 18.7277 4.44198 18.7054 4.1518 18.8839C3.86162 19.0625 3.70537 19.1964 3.70537 19.1964C3.70537 19.1964 3.37055 19.5759 3.34823 19.6429C3.32591 19.7098 3.16966 19.9777 3.16966 19.9777C3.16966 19.9777 3.08037 20.1116 3.05805 20.2679C3.01341 20.4241 3.03573 20.5804 3.03573 20.5804L3.05805 20.9152L3.08037 21.2277C3.08037 21.2277 3.14734 22.0089 3.30359 22.7902C3.34823 23.0134 3.39287 23.3705 3.39287 23.3705L3.50448 24.1741C3.50448 24.1741 3.57144 25.0223 3.63841 25.3125C3.70537 25.5804 3.75001 25.6027 3.79466 25.7812C3.88394 26.1161 3.72769 26.2723 3.88394 26.6741C4.04019 27.0759 4.17412 27.0312 4.33037 27.2768C4.44198 27.4554 4.48662 27.5 4.57591 27.7232C4.66519 27.9464 4.95537 28.683 5.29019 29.2187C5.64734 29.7768 6.11609 30.4687 6.42859 30.4018C6.74109 30.3348 6.9643 29.8437 6.9643 29.8437C6.9643 29.8437 7.32144 28.8839 7.09823 27.9464C6.87501 26.9866 5.84823 27.433 5.7143 26.7411C5.69198 26.5848 5.7143 26.3393 5.7143 26.3393C5.7143 26.3393 5.69198 26.0491 5.64734 25.9598C5.60269 25.8705 5.24555 25.2009 5.11162 24.6429C5.00001 24.2187 5.02234 22.8571 4.93305 22.4777C4.68751 21.4955 4.66519 21.5848 4.79912 21.4062C4.95537 21.2277 5.0893 21.2723 5.0893 21.2723L5.29019 21.2946L5.44644 21.3616C5.44644 21.3616 5.62501 21.4732 5.73662 21.5402C5.82591 21.6071 6.13841 21.8527 6.13841 21.8527L6.89734 22.3437C6.89734 22.3437 7.32144 22.5893 7.50001 22.6786C7.67858 22.7679 7.83483 22.8795 7.83483 22.8795L8.03573 23.0134L8.37055 23.2589L8.43751 23.3259L8.48216 23.4152C8.48216 23.4152 8.63841 23.7723 9.30805 24.1518C9.84376 24.4643 10.3125 24.375 10.5134 24.6205C10.558 24.6652 10.9375 25.1786 11.1161 25.4911C11.3393 25.8482 11.6072 26.2723 11.6964 26.4062C11.7857 26.5402 12.3438 27.2321 12.3438 27.2321L13.0804 28.0357L14.0402 28.9286L14.9107 29.6652L15.4688 30.1116C15.4688 30.1116 15.9598 30.5804 16.5179 30.9598C17.0536 31.317 17.0759 31.3616 17.433 31.6071C17.7009 31.7857 18.0581 32.0312 18.4152 32.2991C18.7723 32.5893 19.1741 33.125 19.0179 33.3036C18.9063 33.3705 18.7054 33.0803 18.3259 32.7455C18.0134 32.4777 17.8572 32.3437 17.5447 32.1205C17.1429 31.808 16.942 31.6518 16.4956 31.3839C16.2723 31.25 15.8705 31.0045 15.8482 31.0491C15.692 31.5179 15.7143 31.9643 15.7366 32.5446C15.7589 32.9464 15.8259 33.3482 15.9598 33.8616C16.0714 34.3527 16.1831 34.6205 16.3616 35.0893C16.5402 35.558 16.875 36.2946 16.875 36.2946L17.3884 37.3214L17.8572 38.1027L18.1027 38.5045L18.192 38.6384C18.192 38.6384 18.3036 38.9062 18.192 39.0848C18.0804 39.2634 17.9464 39.6428 17.7456 39.6652C17.5447 39.7098 17.0759 39.7321 17.0759 39.7321L14.4197 39.6875L13.0357 39.5759C13.0357 39.5759 12.8795 39.4866 12.0759 39.4866C11.6072 39.4866 11.2277 39.6875 10.9598 39.7098C10.7366 39.7321 9.64287 39.6428 8.90626 39.933C8.2143 40.2232 7.9018 40.2902 7.65626 40.7366C7.47769 41.0714 8.5268 41.6071 9.39733 41.808C10.8036 42.1205 10.4018 41.5179 10.9375 41.1384C11.0045 41.0937 11.0268 41.0491 11.0938 41.0268C11.4509 40.9152 11.6518 41.2054 12.0089 41.2054C12.4107 41.2054 12.6339 41.0714 13.0357 41.0045C15.067 40.7366 18.2366 41.6964 18.2366 41.6964C18.2366 41.6964 19.0179 41.942 19.375 41.875C19.7991 41.7857 19.7098 41.6295 19.8438 41.3839C19.9554 41.183 19.9107 41.1384 19.9331 40.9152C19.9331 40.7812 19.9107 40.7143 19.8884 40.5804C19.7991 40.2009 19.5536 39.6652 19.5536 39.6652C19.5536 39.6652 19.375 39.2634 19.3081 39.0625C19.2188 38.7723 19.1295 38.5937 19.0848 38.2812C18.9509 37.4554 18.9732 37.5223 18.9732 37.0536C18.9732 36.2054 19.0625 35.7366 19.2857 34.9107C19.6206 33.7053 20.2456 33.192 20.7143 32.0312C20.8482 31.7187 20.8482 31.2723 21.0045 31.2277C21.183 31.2053 21.1607 31.7857 21.0714 32.1205C20.7813 33.2812 20.067 33.7723 19.7322 34.9554C19.4866 35.8705 19.3527 36.4062 19.4197 37.3437C19.442 37.8571 19.6429 38.6607 19.6429 38.6607C19.6429 38.6607 19.9107 39.5536 20.0447 39.8884C20.1786 40.2232 20.4464 40.7812 20.4464 40.7812L21.0491 41.8527L21.3616 42.3661C21.3616 42.3661 21.5848 42.567 21.4732 42.9018C21.3616 43.2366 21.1384 43.4375 20.8705 43.7277C20.1116 44.6205 18.3482 45.9375 17.9018 46.25C17.2768 46.7187 17.2991 46.8527 17.2545 46.9866C17.0089 47.7009 16.2947 47.7232 15.5134 48.5714C15.3348 48.75 14.8661 49.2411 14.9554 49.6652C15 49.8214 16.9197 50.1562 18.0357 49.6875C18.9063 49.308 18.1473 48.8839 18.3929 48.4598C18.5714 48.1473 19.0179 48.1473 19.2188 47.8795C19.5536 47.433 19.3304 47.4554 19.6206 47.0982C20.5804 45.9375 21.2054 45.2679 22.9241 44.2187C23.0804 44.1295 23.3705 43.9955 23.3705 43.9955C23.3705 43.9955 23.6161 43.8839 23.7054 43.75C23.817 43.5714 23.7947 43.4152 23.7947 43.2143C23.7947 43.0804 23.7723 43.0134 23.7723 42.8795C23.7723 42.7232 23.7947 42.6339 23.75 42.4777C23.7054 42.2321 23.5491 42.0312 23.4598 41.8973C23.3705 41.7857 23.2143 41.5848 23.125 41.1607C23.0134 40.7366 23.0134 40.3795 23.192 39.9107C23.3706 39.442 23.7723 39.0625 23.7723 39.0625L24.7768 38.3929C24.7768 38.3929 25.6473 37.7679 25.9152 37.5223C26.2054 37.2768 26.7634 36.7634 27.1652 36.183C27.6339 35.5357 27.8795 35.1339 28.0804 34.3527C28.1473 34.0625 28.2143 33.6161 28.2143 33.6161C28.2143 33.6161 28.2143 33.3036 28.3929 33.2812C28.5714 33.2589 28.6161 33.3259 28.6161 33.3259C28.6161 33.3259 28.7723 33.4152 28.817 33.8616C28.8393 34.308 28.7054 34.8214 28.7054 34.8214C28.7054 34.8214 28.5714 35.3348 28.5268 35.6473C28.5045 35.8482 28.5045 35.9598 28.5045 36.183C28.5045 36.5625 28.6607 36.875 28.6607 36.875C28.6607 36.875 28.75 36.942 28.75 36.7857C28.75 36.6071 28.7947 36.3393 28.8616 36.0714C28.9286 35.8482 28.9732 35.8929 29.1072 35.5134C29.2857 35.0223 29.1295 35.067 29.2188 34.7768C29.2634 34.6429 29.375 34.5089 29.5089 34.5089C29.6429 34.5089 29.6652 34.6875 29.6652 34.6875C29.6652 34.6875 29.7991 35.2678 29.6875 35.8036C29.5759 36.3393 29.1741 37.0759 29.1741 37.0759L28.8616 37.6116C28.8616 37.6116 28.6384 37.9911 28.5491 38.2366C28.4598 38.5045 28.4375 38.6161 28.4822 38.8616C28.5491 39.1295 28.75 39.4866 28.8616 39.4196C28.9509 39.3527 28.7277 39.1295 28.9955 38.5937C29.2634 38.058 29.6205 37.7232 29.6205 37.7232C29.6205 37.7232 30.1116 37.1428 30.3348 36.6964C30.5357 36.2946 30.7366 35.6473 30.7366 35.6473C30.7366 35.6473 30.8929 35.067 30.8482 34.5759C30.8259 34.1071 30.7366 33.8616 30.7366 33.8616L30.5357 33.5045L30.4241 33.2366L30.4688 33.0803C30.5134 33.058 30.6697 33.1696 30.8036 33.3482C30.9375 33.5268 31.0714 33.75 31.1384 34.0625C31.2054 34.2857 31.2277 34.4866 31.2277 34.6875C31.2277 34.8661 31.1607 35.6027 31.4286 36.0714C31.5402 36.2946 31.8081 36.808 31.8304 36.5848C31.875 36.0714 31.6518 35.8259 31.6741 35.3571C31.6964 34.8214 31.8304 34.9553 31.875 34.6875C31.9197 34.3973 31.9866 34.3304 31.942 33.9509C31.8973 33.5937 31.7411 33.125 31.7411 33.125L31.5848 32.7679L31.5179 32.6339C31.5179 32.6339 31.5625 32.567 31.6295 32.567L32.1652 32.3884C32.1652 32.3884 32.8572 32.0759 33.125 31.8527C33.4152 31.6518 33.75 31.2946 33.75 31.2946C33.75 31.2946 34.1964 30.7366 34.4197 30.3348C34.9554 29.3303 34.9554 28.058 34.933 27.4777C34.9107 26.9196 34.7545 26.183 34.7545 26.183C34.7545 26.183 34.5759 25.2902 34.6205 24.7098C34.6652 24.1295 34.7098 23.8616 34.7098 23.8616C34.7098 23.8616 34.6875 23.2812 35.1786 22.6562C35.6697 22.0312 35.8929 21.6295 35.9822 21.1607C36.0714 20.7589 35.9375 20.1116 35.7589 20.3571ZM20.9822 16.3393C20.9152 16.3393 20.8259 16.25 20.8259 16.25C20.8259 16.25 20.8036 16.2277 20.8705 16.183C20.9375 16.1384 21.0268 16.1607 21.0268 16.1607L21.0938 16.183L21.2054 16.3393C21.183 16.4062 21.0491 16.3616 20.9822 16.3393ZM21.25 15.6027C21.183 15.5804 21.0714 15.5134 21.0714 15.5134C21.0714 15.5134 21.0491 15.4687 21.1161 15.4241C21.183 15.3795 21.2947 15.4018 21.2947 15.4018L21.3616 15.4464C21.3839 15.4687 21.4956 15.5804 21.4956 15.625C21.4956 15.692 21.3393 15.625 21.25 15.6027ZM21.4956 14.8437C21.4063 14.8214 21.2723 14.7321 21.2723 14.7321C21.2723 14.7321 21.25 14.6875 21.3393 14.6429C21.4286 14.5982 21.5625 14.6205 21.5625 14.6205L21.6518 14.6652C21.6964 14.7098 21.808 14.8214 21.808 14.8884C21.7857 14.9554 21.5848 14.8661 21.4956 14.8437ZM21.6964 14.1518C21.6072 14.1295 21.4732 14.0402 21.4732 14.0402C21.4732 14.0402 21.4509 13.9955 21.5402 13.9509C21.6295 13.9062 21.7634 13.9286 21.7634 13.9286L21.8527 13.9732C21.8973 14.0179 22.0089 14.1295 22.0089 14.1964C21.9866 14.2411 21.7857 14.1518 21.6964 14.1518ZM21.8973 13.3259C21.7857 13.3036 21.6518 13.192 21.6518 13.192C21.6518 13.192 21.6295 13.1473 21.7188 13.0804C21.8081 13.0134 21.9643 13.058 21.9643 13.058L22.0536 13.1027C22.0982 13.1473 22.2322 13.2812 22.2322 13.3482C22.2322 13.4375 21.9866 13.3259 21.8973 13.3259ZM22.0313 12.433C21.8973 12.4107 21.7188 12.2768 21.7188 12.2768C21.7188 12.2768 21.6741 12.2098 21.808 12.1429C21.9197 12.0759 22.0982 12.0982 22.0982 12.0982L22.2098 12.1652C22.2545 12.2098 22.4107 12.3884 22.433 12.4777C22.433 12.567 22.1652 12.4554 22.0313 12.433ZM22.1205 11.5402C21.9643 11.5179 21.7411 11.3393 21.7411 11.3393C21.7411 11.3393 21.6964 11.2723 21.8304 11.183C21.9643 11.0937 22.1875 11.1384 22.1875 11.1384C22.1875 11.1384 22.2545 11.1607 22.3214 11.2054C22.3884 11.2723 22.567 11.4732 22.5893 11.5848C22.6116 11.6964 22.2768 11.5625 22.1205 11.5402ZM22.2545 10.5134C22.0759 10.4911 21.8304 10.2902 21.8304 10.2902C21.8304 10.2902 21.7857 10.2009 21.942 10.1116C22.0982 10 22.3438 10.067 22.3438 10.067C22.3438 10.067 22.4331 10.0893 22.5 10.1562C22.567 10.2232 22.7902 10.4687 22.8125 10.5804C22.8125 10.7143 22.433 10.5357 22.2545 10.5134ZM22.1652 6.3616C22.0313 6.33928 21.8527 6.20535 21.8527 6.20535C21.8527 6.20535 21.8081 6.16071 21.942 6.09375C22.0759 6.02678 22.2545 6.07142 22.2545 6.07142C22.2545 6.07142 22.3214 6.09375 22.3661 6.13839C22.4107 6.18303 22.5893 6.33928 22.5893 6.42857C22.5893 6.49553 22.2991 6.38392 22.1652 6.3616ZM22.6563 7.36607C22.6786 7.45535 22.3661 7.34375 22.2098 7.32142C22.0759 7.2991 21.875 7.14285 21.875 7.14285C21.875 7.14285 21.8304 7.07589 21.9643 7.00892C22.0982 6.91964 22.2768 6.96428 22.2768 6.96428C22.2768 6.96428 22.3438 6.9866 22.4107 7.03125C22.4777 7.09821 22.6339 7.27678 22.6563 7.36607ZM22.0089 9.01785C22.1429 8.92857 22.3661 8.97321 22.3661 8.97321C22.3661 8.97321 22.4331 8.99553 22.5 9.04017C22.567 9.10714 22.7455 9.30803 22.7679 9.41964C22.7902 9.53125 22.4554 9.39732 22.2991 9.35267C22.1429 9.33035 21.9197 9.15178 21.9197 9.15178C21.9197 9.15178 21.875 9.10714 22.0089 9.01785ZM22.2991 8.25892C22.1429 8.2366 21.9197 8.05803 21.9197 8.05803C21.9197 8.05803 21.875 7.99107 22.0089 7.90178C22.1429 7.8125 22.3661 7.85714 22.3661 7.85714C22.3661 7.85714 22.4331 7.87946 22.5 7.9241C22.567 7.99107 22.7455 8.19196 22.7679 8.30357C22.7902 8.4375 22.4554 8.30357 22.2991 8.25892ZM22.5893 4.91071C22.7679 4.95535 22.8125 5.06696 22.7232 5.06696C22.6339 5.08928 22.5893 5.08928 22.5223 5.08928C22.3214 5.08928 22.3438 5 22.0759 5.13392C21.8081 5.26785 22.0089 5.20089 21.6295 5.33482C21.2723 5.46875 21.3616 5.1116 21.3616 5.1116C21.3616 5.1116 21.3839 5.04464 21.4286 4.86607C21.4732 4.6875 21.6964 4.86607 21.8527 4.86607C22.1429 4.86607 22.3884 4.86607 22.5893 4.91071ZM21.5848 3.52678L21.6964 3.59375C21.7411 3.63839 21.8973 3.81696 21.9197 3.90625C21.942 3.99553 21.6518 3.88392 21.5402 3.8616C21.4063 3.83928 21.2277 3.70535 21.2277 3.70535C21.2277 3.70535 21.183 3.63839 21.317 3.57142C21.4286 3.48214 21.5848 3.52678 21.5848 3.52678ZM20.7813 2.45535C20.8929 2.38839 21.0714 2.41071 21.0714 2.41071L21.1831 2.47767C21.2277 2.52232 21.3839 2.70089 21.4063 2.79017C21.4286 2.87946 21.1384 2.76785 21.0268 2.74553C20.8929 2.72321 20.7143 2.58928 20.7143 2.58928C20.7143 2.58928 20.6697 2.52232 20.7813 2.45535ZM20.558 16.9196C20.625 16.875 20.7143 16.8973 20.7143 16.8973L20.7813 16.9196L20.8929 17.0759C20.8929 17.1205 20.7589 17.0536 20.692 17.0536C20.625 17.0536 20.5357 16.9643 20.5357 16.9643C20.5357 16.9643 20.4911 16.942 20.558 16.9196ZM11.6072 6.29464C11.5402 6.33928 11.4955 6.3616 11.4063 6.42857C11.2947 6.51785 11.183 6.74107 11.1161 6.6741C11.0268 6.60714 11.0714 6.3616 11.0714 6.3616C11.0714 6.3616 11.1384 6.18303 11.2277 6.00446C11.3393 5.82589 11.4732 5.82589 11.4732 5.82589C11.6072 5.82589 11.8527 5.91517 11.8527 6.11607C11.875 6.31696 11.7188 6.22767 11.6072 6.29464ZM13.4375 6.9866C13.4375 6.9866 13.3482 7.00892 13.3259 6.85267C13.3036 6.69642 13.4375 6.6741 13.4375 6.6741C13.4375 6.6741 13.7054 6.54017 13.7054 6.71875C13.7277 6.875 13.4375 6.9866 13.4375 6.9866ZM15.8259 3.95089C15.8259 3.95089 15.5357 4.41964 15.1339 4.59821C14.7322 4.77678 14.4643 4.86607 13.7054 4.93303C13.5938 4.93303 13.6384 4.86607 13.6384 4.86607C13.6384 4.86607 14.5089 4.62053 15 4.35267C15.2679 4.19642 15.5804 3.99553 15.6697 3.90625C15.9822 3.63839 15.8259 3.95089 15.8259 3.95089ZM0.825907 23.2812C0.825907 23.3929 0.691979 23.5937 0.647336 23.5937C0.602693 23.5937 0.513407 23.3929 0.535729 23.2812C0.55805 23.1696 0.580372 22.8571 0.758943 22.9018C0.892872 22.9241 0.825907 23.1696 0.825907 23.2812ZM1.40626 20.7589C1.40626 20.7589 1.20537 21.183 1.13841 21.0045C1.07144 20.8482 1.20537 20.558 1.20537 20.558C1.38394 20.4018 1.45091 20.1786 1.54019 20.2679C1.60716 20.3571 1.40626 20.7589 1.40626 20.7589ZM4.17412 16.4062C3.97323 16.6295 3.34823 17.8125 3.2143 17.6116C3.08037 17.4554 3.81698 16.3393 3.97323 16.1161C4.12948 15.8705 4.26341 15.9152 4.26341 15.9152L4.30805 15.9598C4.28573 15.9598 4.37501 16.183 4.17412 16.4062ZM5.84823 14.6429C5.84823 14.6429 5.4018 14.7321 5.46876 14.5759C5.55805 14.4196 5.87055 14.3527 5.87055 14.3527C6.11609 14.3973 6.16073 14.4196 6.13841 14.5312C6.16073 14.6429 5.84823 14.6429 5.84823 14.6429ZM7.65626 17.7679C7.45537 17.9687 7.38841 17.7009 7.09823 17.3661C6.80805 17.0536 6.87501 16.7857 6.87501 16.7857H6.91966L6.9643 16.808L7.07591 16.8527L7.14287 16.9196L7.36609 17.1429C7.45537 17.2768 7.70091 17.7232 7.65626 17.7679ZM4.19644 24.442C4.12948 24.442 4.06251 24.308 4.06251 24.308C4.06251 24.308 3.88394 24.0402 3.81698 23.8393C3.75001 23.6607 3.72769 23.3705 3.72769 23.3705C3.72769 23.3705 3.68305 22.9911 3.68305 22.8571C3.70537 22.6786 3.70537 22.5223 3.72769 22.433C3.75001 22.3437 3.8393 22.3661 3.8393 22.3661C3.97323 22.3661 3.97323 22.4777 3.97323 22.4777V22.5446C3.97323 22.5446 3.97323 22.9464 3.99555 23.2589C3.99555 23.3482 4.24109 24.3527 4.24109 24.3527C4.24109 24.3527 4.28573 24.442 4.19644 24.442ZM4.1518 19.7545C3.99555 20 3.88394 20 3.88394 20C3.88394 19.9777 3.8393 19.8884 3.97323 19.6205C4.10716 19.3527 4.24109 19.375 4.24109 19.375L4.28573 19.4196C4.28573 19.4196 4.30805 19.5089 4.1518 19.7545ZM5.73662 29.1071C5.78126 29.0178 6.07144 29.2411 6.07144 29.2411C6.18305 29.2634 6.29466 29.4643 6.29466 29.4643C6.29466 29.4643 6.3393 29.6205 6.20537 29.6652C6.07144 29.7321 5.98216 29.5982 5.98216 29.5982C5.98216 29.5982 5.69198 29.1964 5.73662 29.1071ZM7.83483 22.2768C7.52233 22.2098 6.85269 21.6964 6.58484 21.5625C6.31698 21.4286 5.87055 21.3839 6.07144 21.2054C6.09376 21.183 6.11609 21.1384 6.16073 21.1384C6.20537 21.1384 6.40626 21.2054 6.40626 21.2054L6.89734 21.4062C6.91966 21.4062 7.16519 21.5179 7.36609 21.6295C7.54466 21.7411 7.85716 21.942 7.85716 21.942L7.99108 22.0536C7.99108 22.0982 8.14734 22.3437 7.83483 22.2768ZM10.558 17.8348C10.558 17.8348 10.1786 18.3482 9.95537 18.6607C9.66519 19.0848 9.30805 19.7321 9.24109 19.6652C9.17412 19.5982 9.55359 18.8839 9.75448 18.5045C9.97769 18.0357 10.3125 17.7902 10.4464 17.7455C10.7366 17.6116 10.558 17.8348 10.558 17.8348ZM9.35269 40.1786C9.35269 40.1786 9.35269 40.2678 9.19644 40.3795C9.04019 40.4911 8.97323 40.4241 8.95091 40.4241C8.92858 40.4241 8.77234 40.3348 8.77234 40.2455C8.79466 40.1562 9.04019 40.0893 9.04019 40.0893C9.4643 40.067 9.35269 40.1786 9.35269 40.1786ZM12.8125 40.0446C12.6563 40.0223 12.6339 39.9777 12.6563 39.9554C12.6563 39.933 12.7009 39.8884 12.8795 39.8884C13.058 39.8884 13.058 39.9777 13.058 39.9777C13.058 40.0446 12.9911 40.067 12.8125 40.0446ZM16.7857 40.2678C16.4509 40.3571 16.317 40.3125 16.0268 40.3348C15.7813 40.3571 15.6697 40.3795 15.4241 40.3795C15 40.3795 14.9554 40.4018 14.3527 40.2232C14.2411 40.1786 14.1072 40.0446 14.1518 40C14.1964 39.933 14.2857 39.9554 14.2857 39.9554C14.2857 39.9554 15.0447 40.0893 15.5357 40.1116C15.8929 40.1339 16.0714 40.1562 16.4286 40.1339C16.6295 40.1339 16.5179 40.1116 16.8304 40.1116C16.942 40.0893 16.875 40.2455 16.7857 40.2678ZM18.9063 39.6429C18.8839 39.6652 18.75 39.7098 18.6384 39.7321C18.5045 39.7545 18.5714 39.6429 18.5714 39.6429C18.5714 39.6429 18.6607 39.5089 18.7723 39.442C18.9063 39.375 18.9732 39.442 18.9732 39.442C19.0179 39.5312 18.9286 39.6205 18.9063 39.6429ZM20.558 35.3571C20.4018 35.692 20.3572 35.8036 20.3348 36.1161C20.2902 36.4509 20.4911 37.3884 20.1786 37.0312C20.067 36.875 19.9554 36.1384 20.0447 35.7812C20.2009 34.9777 20.8482 34.7545 20.558 35.3571ZM16.0491 48.9955C15.9152 49.0848 16.183 49.3527 15.7589 49.3304C15.5134 49.308 15.6473 49.0848 15.6697 49.0625L15.8259 48.8393C15.9375 48.683 16.0045 48.6607 16.1161 48.5937C16.2277 48.5268 16.317 48.7053 16.317 48.7053C16.317 48.7053 16.3616 48.7723 16.3616 48.8616C16.3616 48.9286 16.1607 48.9062 16.0491 48.9955ZM18.3929 46.7411L18.192 46.8973C18.1697 46.8973 18.0357 47.0089 17.9911 46.942C17.9464 46.875 18.0134 46.7857 18.0134 46.7634C18.0134 46.7411 18.1473 46.5848 18.2589 46.5402C18.3706 46.4732 18.4375 46.5402 18.4375 46.5402C18.5045 46.6964 18.3929 46.7411 18.3929 46.7411ZM19.442 7.63392C19.442 7.63392 19.3527 7.9241 19.1741 7.99107C18.9509 8.05803 18.1027 8.08035 18.0804 8.01339C18.0581 7.94642 19.0625 7.85714 19.442 7.47767C19.5313 7.38839 19.442 7.63392 19.442 7.63392ZM19.1295 6.89732C19.1964 6.78571 19.1518 7.07589 19.1518 7.07589C19.1518 7.07589 19.0848 7.36607 18.9286 7.45535C18.7277 7.56696 18.2366 7.70089 18.192 7.63392C18.192 7.58928 18.8393 7.38839 19.1295 6.89732ZM17.7456 3.5491C17.7456 3.5491 17.8348 3.5491 17.9688 3.61607C18.1027 3.70535 18.192 3.97321 18.192 3.97321C18.192 3.97321 18.2143 4.01785 18.1027 4.01785C18.0357 4.01785 18.0357 3.90625 17.9688 3.8616C17.8795 3.79464 17.8125 3.77232 17.7009 3.72767C17.5893 3.68303 17.4331 3.75 17.4107 3.63839C17.4107 3.50446 17.7456 3.5491 17.7456 3.5491ZM16.7188 4.28571C16.7188 4.28571 16.7634 4.15178 16.9643 4.04017C17.1429 3.92857 17.3884 3.92857 17.3884 3.92857C17.3884 3.92857 17.5223 3.92857 17.6786 4.04017C17.8348 4.15178 17.9688 4.53125 17.9688 4.53125C17.9688 4.53125 18.0134 4.77678 17.9018 4.86607C17.7902 4.95535 17.6116 4.7991 17.5223 4.66517C17.4107 4.53125 17.3438 4.4866 17.1875 4.44196C17.0089 4.375 16.7411 4.57589 16.6964 4.44196C16.6964 4.39732 16.7188 4.28571 16.7188 4.28571ZM16.6518 7.36607C16.5179 7.38839 16.6072 7.25446 16.6072 7.25446C16.6072 7.25446 16.9866 7.09821 17.2322 6.96428C17.6339 6.76339 18.3929 5.95982 18.192 6.33928C18.1027 6.51785 17.8348 6.74107 17.8348 6.74107C17.8348 6.74107 17.5223 7.1875 17.4554 7.25446C17.1652 7.47767 16.808 7.34375 16.6518 7.36607ZM13.5045 16.0268L13.5268 15.9821C13.5268 15.9821 14.1964 15.5357 15.2456 15.6696C15.8706 15.7589 16.4732 16.317 16.3839 16.3839C16.2947 16.4509 16.1607 16.3839 16.1161 16.3839L15.8929 16.2723L15.558 16.183C15.558 16.183 14.9554 16.0491 14.5089 16.0714C14.0625 16.0937 13.6607 16.25 13.6607 16.25C13.6607 16.25 13.4822 16.3393 13.4375 16.2277C13.4152 16.0937 13.5045 16.0268 13.5045 16.0268ZM15.1563 28.5937C13.6161 27.4107 11.7411 25 11.9643 24.7768C12.1652 24.5982 12.9241 25.7143 14.0625 26.942C15.2679 28.2366 16.6741 29.4643 16.7188 29.6205C16.8081 29.8884 15.7366 29.0402 15.1563 28.5937ZM18.6607 11.9196C18.0134 13.0357 17.1205 13.8839 17.1205 13.8839C16.808 14.1071 17.0089 13.7054 17.0089 13.7054C17.0089 13.7054 17.8795 12.5 18.2813 11.6518C18.5714 11.0491 18.75 10.2455 18.8839 10.0893C19.1964 9.70982 19.0402 11.25 18.6607 11.9196ZM20.4464 24.1518C19.7768 23.3482 19.2857 22.4777 19.1295 21.3839C19.0848 21.1384 19.0848 20.7812 19.3081 20.8259C19.5089 20.8482 19.4866 21.2277 19.4866 21.317C19.5536 21.9643 19.8214 22.6116 20.3125 23.3929C21.0045 24.4866 22.1206 25.3348 22.0759 25.4018C21.9643 25.5134 20.8482 24.6429 20.4464 24.1518ZM20.6473 45.0223C20.2679 45.3795 19.6206 45.8705 19.6206 45.8705H19.5313V45.7589L19.5536 45.7143L19.5982 45.6473L19.6429 45.5803L19.6875 45.5134L19.8214 45.3571L20.1339 45.067L20.4464 44.7768L20.9375 44.2857C20.9375 44.2857 21.1161 44.0848 21.1831 44.0402C21.25 43.9955 21.2947 43.9509 21.3616 43.9062C21.4509 43.8616 21.5625 43.7946 21.6072 43.8393V43.9286C21.6295 43.9955 21.0491 44.6428 20.6473 45.0223ZM22.0313 28.5045C21.7411 28.7054 21.6295 28.683 21.4509 28.8839C21.25 29.1295 21.183 29.9554 20.9822 29.6205C20.7813 29.2857 20.9152 28.817 21.25 28.4598C21.6518 27.9911 22.5223 28.1473 22.0313 28.5045ZM23.0804 43.192C23.2143 43.1473 23.2813 43.1696 23.2813 43.1696L23.3259 43.2589C23.3259 43.2812 23.1473 43.5268 23.0581 43.5268C22.9464 43.5045 22.9911 43.3705 22.9911 43.3705C22.9911 43.3705 22.9464 43.2366 23.0804 43.192ZM26.8973 34.1071C26.6964 33.9732 27.0089 33.5714 27.0089 33.2366C27.0089 32.9687 26.9643 32.7679 26.9643 32.5446C26.9643 32.3214 27.1875 32.2545 27.1875 32.2545C27.2322 32.2545 27.3214 32.2991 27.433 32.5223C27.5447 32.7455 27.2545 34.3304 26.8973 34.1071ZM33.7277 27.7232C33.683 28.6607 33.6384 29.3304 33.0804 30.0446C32.4107 30.9152 31.25 31.808 31.4956 31.0937C31.6518 30.6696 32.6786 30.1339 33.0804 28.9509C33.3036 28.2366 33.3482 27.567 33.3482 27.567L33.3036 26.2054C33.3036 26.2054 33.2813 26.0937 33.2813 25.9375C33.3482 25.7589 33.4375 25.8929 33.4375 25.8929L33.4822 25.9598C33.4822 26.0045 33.75 27.0536 33.7277 27.7232Z" fill="white"/>
</svg>
